<mxfile host="app.diagrams.net" modified="2023-09-06T08:47:11.026Z" agent="Mozilla/5.0 (Macintosh; Intel Mac OS X 10_15_7) AppleWebKit/605.1.15 (KHTML, like Gecko) Version/16.4 Safari/605.1.15" version="21.7.2" etag="TVRnN5P3uBDCK9BFEgJu" type="github">
  <diagram name="Page-1" id="Ta-tP-vgKMGgS2tbCbx0">
    <mxGraphModel>
      <root>
        <mxCell id="0" />
        <mxCell id="1" parent="0" />
      </root>
    </mxGraphModel>
  </diagram>
</mxfile>
